<svg width="202" height="202" viewBox="0 0 202 202" fill="none" xmlns="http://www.w3.org/2000/svg">
<g clip-path="url(#clip0_37_49)">
<rect width="202" height="202" fill="white"/>
<path d="M98.0997 186.141L13.4844 47.5942L36.3258 33.6441L73.0306 93.7434L70.0966 98.6201C68.6004 93.3644 68.5569 87.8213 69.9659 81.991C71.2987 76.0358 73.7754 70.4103 77.3959 65.1143C81.0164 59.8184 85.4478 55.5697 90.6901 52.368C98.1791 47.7942 105.335 45.4805 112.157 45.4269C119.104 45.2971 125.655 47.4655 131.811 51.9321C138.091 56.3224 143.975 63.011 149.464 71.9978L186.283 132.284L163.254 146.349L127.464 87.7473C124.415 82.7546 121.213 79.055 117.858 76.6482C114.427 74.1167 110.818 72.9787 107.033 73.2342C103.171 73.3649 99.2187 74.7504 95.1759 77.3908C91.8059 79.449 89.0285 81.9165 86.8438 84.7931C84.7077 87.4687 83.1885 90.453 82.2863 93.746C81.4327 96.8379 81.1441 100.013 81.4205 103.272C81.8218 106.454 82.9371 109.543 84.7667 112.539L121.128 172.076L109.708 179.051C107.461 180.424 105.339 181.72 103.342 182.939C101.47 184.083 99.7223 185.15 98.0997 186.141Z" fill="black"/>
</g>
<defs>
<clipPath id="clip0_37_49">
<rect width="202" height="202" fill="white"/>
</clipPath>
</defs>
</svg>
