<svg width="96" height="106" viewBox="0 0 96 106" fill="none" xmlns="http://www.w3.org/2000/svg">
<path d="M46.9088 105.484L0.692309 29.8107L13.1682 22.1913L33.2162 55.0172L31.6136 57.6808C30.7965 54.8102 30.7727 51.7826 31.5423 48.5981C32.2702 45.3454 33.623 42.2727 35.6005 39.3801C37.578 36.4875 39.9984 34.1669 42.8617 32.4181C46.9522 29.92 50.8606 28.6562 54.5868 28.627C58.3812 28.556 61.9595 29.7404 65.3215 32.18C68.7517 34.578 71.9657 38.2313 74.9636 43.1399L95.074 76.0681L82.4958 83.75L62.9475 51.7422C61.282 49.0152 59.5331 46.9944 57.7006 45.6799C55.8265 44.2972 53.8556 43.6756 51.788 43.8152C49.6787 43.8865 47.52 44.6433 45.3119 46.0855C43.4712 47.2097 41.9542 48.5574 40.7609 50.1286C39.5941 51.59 38.7644 53.22 38.2716 55.0186C37.8054 56.7074 37.6477 58.4417 37.7987 60.2216C38.0179 61.9598 38.6271 63.647 39.6264 65.2832L59.487 97.8023L53.249 101.612C52.0219 102.362 50.8629 103.069 49.7721 103.736C48.7495 104.36 47.7951 104.943 46.9088 105.484Z" fill="black"/>
</svg>
