<?xml version="1.0" encoding="UTF-8"?>
<svg id="Layer_1" xmlns="http://www.w3.org/2000/svg" version="1.1" viewBox="0 0 338 320">
  <!-- Generator: Adobe Illustrator 29.2.0, SVG Export Plug-In . SVG Version: 2.1.0 Build 108)  -->
  <path d="M88.3,132.2c-3.4-2.4-6.9-3.6-10.7-3.6-3.7,0-7.6,1.3-11.7,3.8-2.9,1.7-5.3,4.1-7.3,7-2,2.9-3.3,6-4.1,9.2-.2,1-.4,1.9-.5,2.9l-17.9-29.3-12.5,7.6,46.2,75.7c.9-.5,1.8-1.1,2.9-1.7,1.1-.7,2.2-1.4,3.5-2.1l6.2-3.8-19.9-32.5c-1-1.6-1.6-3.3-1.8-5.1-.2-1.8,0-3.5.5-5.2.5-1.8,1.3-3.4,2.5-4.9,1.2-1.6,2.7-2.9,4.6-4,2.2-1.4,4.4-2.2,6.5-2.3,2.1-.1,4,.5,5.9,1.9,1.8,1.3,3.6,3.3,5.2,6.1l19.5,32,12.6-7.7-20.1-32.9c-3-4.9-6.2-8.6-9.6-11Z"/>
  <polygon points="291.2 160.7 258.1 187.7 263.5 153.9 256.1 149.1 227.1 168.1 238.9 126.3 226.2 118.2 209.4 182.6 218.1 188.3 249.2 166.9 242.5 204.4 251.4 210.1 303.8 169 291.2 160.7"/>
  <path d="M115.8,143.4l7.4,8.7c12.9-11.1,44.9-25.3,74.3,0l7.4-8.7c-35.3-30.4-73.8-13.3-89.2,0Z"/>
</svg>